<?xml version="1.0" standalone="no"?>
<!DOCTYPE svg PUBLIC "-//W3C//DTD SVG 20010904//EN"
 "http://www.w3.org/TR/2001/REC-SVG-20010904/DTD/svg10.dtd">
<svg version="1.0" xmlns="http://www.w3.org/2000/svg"
 width="512.000000pt" height="512.000000pt" viewBox="0 0 512.000000 512.000000"
 preserveAspectRatio="xMidYMid meet">

<g transform="translate(0.000000,512.000000) scale(0.100000,-0.100000)"
fill="#000000" stroke="none">
<path d="M326 4690 c-52 -26 -74 -47 -100 -95 l-21 -40 0 -1530 0 -1530 24
-48 c25 -51 66 -88 120 -106 49 -16 4373 -16 4422 0 54 18 95 55 120 106 l24
48 0 1530 0 1530 -22 42 c-12 22 -35 51 -50 63 -68 53 74 50 -2287 50 -2153
-1 -2192 -1 -2230 -20z m4382 -1362 l2 -1178 -2150 0 -2150 0 0 1173 c0 646 3
1177 7 1180 3 4 970 6 2147 5 l2141 -3 3 -1177z m-337 -1517 c41 -42 41 -98
-2 -140 -43 -43 -95 -43 -138 0 -24 23 -31 39 -31 69 0 30 7 46 31 69 42 43
98 43 140 2z"/>
<path d="M2801 4170 c-16 -17 -33 -40 -36 -53 -4 -12 -25 -69 -47 -127 -22
-58 -49 -130 -60 -160 -11 -30 -24 -64 -28 -75 -4 -11 -18 -47 -30 -80 -12
-33 -26 -69 -30 -80 -4 -11 -18 -47 -30 -80 -12 -33 -26 -69 -30 -80 -4 -11
-17 -45 -28 -75 -11 -30 -28 -75 -37 -100 -10 -25 -55 -144 -100 -265 -46
-121 -90 -240 -100 -265 -9 -25 -26 -70 -37 -100 -21 -58 -28 -77 -47 -123
-18 -45 -13 -83 14 -115 33 -39 74 -48 119 -27 40 19 45 29 116 220 28 77 55
149 60 160 4 11 18 47 30 80 12 33 26 69 30 80 4 11 18 47 30 80 12 33 26 69
30 80 4 11 17 45 28 75 11 30 38 102 60 160 22 58 83 222 137 365 53 143 100
269 104 280 63 149 64 174 17 221 -45 45 -92 47 -135 4z"/>
<path d="M1763 3848 c-39 -41 -366 -450 -411 -515 -28 -40 -28 -72 2 -116 13
-19 114 -148 224 -285 206 -257 233 -282 288 -268 31 8 70 48 78 82 10 39 -13
75 -174 274 -83 102 -162 202 -176 222 l-26 38 177 221 c97 121 183 236 191
255 27 64 -23 134 -96 134 -29 0 -44 -8 -77 -42z"/>
<path d="M3217 3870 c-39 -31 -52 -81 -32 -121 10 -17 95 -130 191 -249 96
-120 174 -220 174 -224 0 -6 -60 -83 -149 -191 -9 -11 -32 -40 -51 -65 -19
-25 -37 -47 -40 -50 -28 -27 -123 -157 -131 -180 -19 -53 38 -130 96 -130 41
0 86 46 266 270 272 339 272 339 227 403 -56 81 -408 515 -433 535 -35 28 -84
28 -118 2z"/>
<path d="M1948 1028 l-3 -103 -190 -6 c-104 -3 -201 -9 -215 -14 -39 -13 -113
-64 -139 -97 -48 -59 -71 -135 -71 -235 0 -90 0 -92 34 -127 l33 -36 1163 0
1163 0 33 36 c33 35 34 37 34 123 0 100 -15 153 -62 222 -31 46 -98 97 -148
114 -14 5 -110 11 -215 14 l-190 6 -3 103 -3 102 -609 0 -609 0 -3 -102z"/>
</g>
</svg>
